<svg width="277" height="50" viewBox="0 0 277 50" fill="none" xmlns="http://www.w3.org/2000/svg">
<path d="M11.3564 21.6779L10.3324 20.5818L9.85636 21.0265L9.85636 21.6779L11.3564 21.6779ZM10.2958 48.7391C10.8816 49.3249 11.8314 49.3249 12.4171 48.7391L21.963 39.1931C22.5488 38.6073 22.5488 37.6575 21.963 37.0718C21.3772 36.486 20.4275 36.486 19.8417 37.0718L11.3565 45.5571L2.87114 37.0718C2.28535 36.4861 1.33561 36.4861 0.749824 37.0719C0.164041 37.6576 0.164044 38.6074 0.749831 39.1932L10.2958 48.7391ZM32.7664 1.67805L32.7664 0.178047L32.1748 0.178049L31.7425 0.581898L32.7664 1.67805ZM9.85636 21.6779L9.85647 47.6784L12.8565 47.6784L12.8564 21.6779L9.85636 21.6779ZM277 0.177895L32.7664 0.178047L32.7664 3.17805L277 3.1779L277 0.177895ZM31.7425 0.581898L10.3324 20.5818L12.3803 22.7741L33.7904 2.77419L31.7425 0.581898Z" fill="black"/>
</svg>
