<svg width="227" height="155" viewBox="0 0 227 155" fill="none" xmlns="http://www.w3.org/2000/svg">
<path d="M215.838 152.597L215.838 154.097L217.338 154.097L217.338 152.597L215.838 152.597ZM216.898 0.939354C216.313 0.353565 215.363 0.353565 214.777 0.939351L205.231 10.4853C204.645 11.0711 204.645 12.0208 205.231 12.6066C205.817 13.1924 206.767 13.1924 207.352 12.6066L215.838 4.12133L224.323 12.6066C224.909 13.1924 225.858 13.1924 226.444 12.6066C227.03 12.0208 227.03 11.0711 226.444 10.4853L216.898 0.939354ZM217.338 152.597L217.338 2.00001L214.338 2.00001L214.338 152.597L217.338 152.597ZM-6.08739e-07 154.097L215.838 154.097L215.838 151.097L1.03819e-06 151.097L-6.08739e-07 154.097Z" fill="black"/>
</svg>
